
Format : AVI
Format/Info : Audio Video Interleave
File size : 1.65 GiB
Duration : 1h 32mn
Overall bit rate : 2 557 Kbps
Writing application : VirtualDubMod 1.5.10.2 (build 2540/release)
Writing library : VirtualDubMod build 2540/release

Video
ID : 0
Format : MPEG-4 Visual
Format profile : Advanced Simple@L5
Format settings, BVOP : 2
Format settings, QPel : No
Format settings, GMC : No warppoints
Format settings, Matrix : Default (H.263)
Muxing mode : Packed bitstream
Codec ID : XVID
Codec ID/Hint : XviD
Duration : 1h 32mn
Bit rate : 2 164 Kbps
Width : 720 pixels
Height : 384 pixels
Display aspect ratio : 1.875
Frame rate : 23.976 fps
Color space : YUV
Chroma subsampling : 4:2:0
Bit depth : 8 bits
Scan type : Progressive
Compression mode : Lossy
Bits/(Pixel*Frame) : 0.326
Stream size : 1.40 GiB (85%)
Writing library : XviD 64

Audio
ID : 1
Format : AC-3
Format/Info : Audio Coding 3
Mode extension : CM (complete main)
Codec ID : 2000
Duration : 1h 32mn
Bit rate mode : Constant
Bit rate : 384 Kbps
Channel(s) : 6 channels
Channel positions : Front: L C R, Side: L R, LFE
Sampling rate : 48.0 KHz
Bit depth : 16 bits
Compression mode : Lossy
Stream size : 254 MiB (15%)
Alignment : Split accross interleaves
Interleave, duration : 42 ms (1.00 video frame)
Interleave, preload duration : 500 ms








 
http://www.imdb.com/title/tt1549572/



Plot

on the night of the discovery of a duplicate planet in the solar system, an ambitious young student
and an accomplished composer cross paths in a tragic accident.


















Source Used


Another.Earth.2011.720p.BluRay.x264.DTS-WiKi............ Thanks



Enjoy





Greetz to IMAGiNE,Flawl3ss,BDK,Ez,CreWsaDe,TaRiQ786,ETRG,BHRG,iLLUMiNATi,ViSUALiSE,MiSTERE
